# xmcd CD database file
#
# Track frame offsets:
#	150
#	14829
#	29136
#	44349
#	55911
#	68495
#	83827
#	98650
#	113518
#	128286
#	140802
#	156120
#	168756
#	183441
#	198106
#	212481
#	226103
#	240277
#	254326
#	269048
#
# Disc length: 3732 seconds
#
# Revision: 0
# Processed by: cddbd v1.5.2PL0 Copyright (c) Steve Scherf et al.
# Submitted via: CDex 1.70beta2
#
DISCID=080e9214
DTITLE=Lionel Hampton - Jazz Roads CD126 - Swing - Lionel Hampton Groups Vol.2 (1938-39)
DYEAR=2006
DGENRE=Jazz
TTITLE0=Lionel Hampton And His Orchestra - You're My Ideal
TTITLE1=Lionel Hampton And His Orchestra - The Sun Will Shine Tonight
TTITLE2=Lionel Hampton And His Orchestra - Ring Dem Bells
TTITLE3=Lionel Hampton And His Orchestra - Don't Be That Way
TTITLE4=Lionel Hampton And His Orchestra - I'm In The Mood For Swing
TTITLE5=Lionel Hampton And His Orchestra - Shoe Shiner's Drag
TTITLE6=Lionel Hampton And His Orchestra - Any Time At All
TTITLE7=Lionel Hampton And His Orchestra - Muskrat Ramble
TTITLE8=Lionel Hampton And His Orchestra - Down Home Jump
TTITLE9=Lionel Hampton And His Orchestra - Rock Hill Special
TTITLE10=Lionel Hampton And His Orchestra - Fiddle Diddle
TTITLE11=Lionel Hampton And His Orchestra - I Can Give You Love
TTITLE12=Lionel Hampton And His Orchestra - High Society
TTITLE13=Lionel Hampton And His Orchestra - It Don't Mean A Thing
TTITLE14=Lionel Hampton And His Orchestra - Johnny Get Your Horn And Blow It
TTITLE15=Lionel Hampton And His Orchestra - Sweethearts On Parade
TTITLE16=Lionel Hampton And His Orchestra - Shufflin' At The Hollywood (1)
TTITLE17=Lionel Hampton And His Orchestra - Shufflin' At The Hollywood (2)
TTITLE18=Lionel Hampton And His Orchestra - Denison Swing
TTITLE19=Lionel Hampton And His Orchestra - Wizzin' The Wizz
EXTD=YEAR: 2006
EXTT0=
EXTT1=
EXTT2=
EXTT3=
EXTT4=
EXTT5=
EXTT6=
EXTT7=
EXTT8=
EXTT9=
EXTT10=
EXTT11=
EXTT12=
EXTT13=
EXTT14=
EXTT15=
EXTT16=
EXTT17=
EXTT18=
EXTT19=
PLAYORDER=
